<svg xmlns="http://www.w3.org/2000/svg" width="121.55" height="30" viewBox="0 0 121.55 30">
  <defs>
    <style>
      .cls-1 {
        fill: #fff;
      }
    </style>
  </defs>
  <title>Recurso 3</title>
  <g id="Capa_2" data-name="Capa 2">
    <g id="Capa_1-2" data-name="Capa 1">
      <g>
        <path class="cls-1" d="M66,1.41a11.74,11.74,0,0,0-10.32,0,13.06,13.06,0,0,0-4.15,3.21A15.74,15.74,0,0,0,47.82,15a15.74,15.74,0,0,0,3.75,10.37,13.06,13.06,0,0,0,4.15,3.21,11.74,11.74,0,0,0,10.32,0,13.06,13.06,0,0,0,4.15-3.21A15.74,15.74,0,0,0,73.94,15,15.74,15.74,0,0,0,70.19,4.62,13.06,13.06,0,0,0,66,1.41ZM60.88,27.48C55,27.48,50.22,21.88,50.22,15S55,2.5,60.88,2.5,71.54,8.11,71.54,15,66.76,27.48,60.88,27.48Z"/>
        <path class="cls-1" d="M98.82.29H78.08c-1,0-1.91,0-2.86,0h0A1.13,1.13,0,0,0,74,1.38a1.14,1.14,0,0,0,1.15,1.09h9.94a.77.77,0,0,1,.73.72V27.51c0,.35,0,.71,0,1.06,0,0,0,0,0,0a1.15,1.15,0,0,0,2.29,0V3.23h0a.77.77,0,0,1,.73-.75h7c1,0,1.91,0,2.86,0h0A1.13,1.13,0,0,0,100,1.38,1.14,1.14,0,0,0,98.82.29Z"/>
        <path class="cls-1" d="M27.76,1.38a1.15,1.15,0,0,0-2.29,0V27.5c0,.35,0,.71,0,1.06,0,0,0,0,0,0a1.15,1.15,0,0,0,2.29,0V2.48c0-.35,0-.71,0-1.06C27.76,1.41,27.76,1.39,27.76,1.38Z"/>
        <path class="cls-1" d="M40.5,2.35a9.59,9.59,0,0,0-5.26-2l-.64,0a1.13,1.13,0,0,0-1.15,1.09,1.14,1.14,0,0,0,1.15,1.09,8.86,8.86,0,0,1,.92.05A8.43,8.43,0,0,1,37.25,3a8.26,8.26,0,0,1,1.55.86A8,8,0,0,1,40,5a7.7,7.7,0,0,1,.9,1.47,7.45,7.45,0,0,1,.47,1.64,7.5,7.5,0,0,1,0,1.76,7.45,7.45,0,0,1-.47,1.64A7.7,7.7,0,0,1,40,13a8,8,0,0,1-1.24,1.18,8.26,8.26,0,0,1-1.55.86,8.43,8.43,0,0,1-1.72.45,8.87,8.87,0,0,1-.92.05,1.09,1.09,0,1,0,0,2.19,9.41,9.41,0,0,0,5.21-1.56,9,9,0,0,0,3.4-4.23,8.31,8.31,0,0,0,.19-5.29A8.63,8.63,0,0,0,40.5,2.35Z"/>
        <path class="cls-1" d="M13.89,15.84A8.84,8.84,0,0,0,9,13.94a1.18,1.18,0,0,0-.34-.05,8.12,8.12,0,0,1-.83,0,7.7,7.7,0,0,1-1.56-.41,7.54,7.54,0,0,1-1.37-.76,7.34,7.34,0,0,1-1.11-1.06,7,7,0,0,1-.8-1.3,6.81,6.81,0,0,1-.43-1.49,6.84,6.84,0,0,1,0-1.58A6.81,6.81,0,0,1,3,5.77a7,7,0,0,1,.8-1.3A7.34,7.34,0,0,1,4.86,3.41a7.54,7.54,0,0,1,1.37-.76,7.7,7.7,0,0,1,1.56-.41,8.12,8.12,0,0,1,.83,0A1.13,1.13,0,0,0,9.76,1.1,1.14,1.14,0,0,0,8.61,0,8.67,8.67,0,0,0,3.8,1.45,8.33,8.33,0,0,0,.67,5.36a7.82,7.82,0,0,0,2.5,8.81A8.84,8.84,0,0,0,8.1,16.06a1.18,1.18,0,0,0,.34.05,8.12,8.12,0,0,1,.83,0,7.7,7.7,0,0,1,1.56.41,7.54,7.54,0,0,1,1.37.76,7.34,7.34,0,0,1,1.11,1.06,7,7,0,0,1,.8,1.3,6.81,6.81,0,0,1,.43,1.49,6.84,6.84,0,0,1,0,1.58,6.81,6.81,0,0,1-.43,1.49,7,7,0,0,1-.8,1.3,7.34,7.34,0,0,1-1.11,1.06,7.54,7.54,0,0,1-1.37.76,7.7,7.7,0,0,1-1.56.41,8.12,8.12,0,0,1-.83,0,1.09,1.09,0,1,0,0,2.19,8.67,8.67,0,0,0,4.81-1.44,8.33,8.33,0,0,0,3.13-3.91A7.82,7.82,0,0,0,13.89,15.84Z"/>
        <ellipse class="cls-1" cx="1.15" cy="28.72" rx="1.15" ry="1.1"/>
        <ellipse class="cls-1" cx="15.68" cy="1.1" rx="1.15" ry="1.1"/>
        <path class="cls-1" d="M118.57,15.84a8.84,8.84,0,0,0-4.93-1.89,1.18,1.18,0,0,0-.34-.05,8.12,8.12,0,0,1-.83,0,7.7,7.7,0,0,1-1.56-.41,7.54,7.54,0,0,1-1.37-.76,7.34,7.34,0,0,1-1.11-1.06,7,7,0,0,1-.8-1.3,6.81,6.81,0,0,1-.43-1.49,6.84,6.84,0,0,1,0-1.58,6.81,6.81,0,0,1,.43-1.49,7,7,0,0,1,.8-1.3,7.34,7.34,0,0,1,1.11-1.06,7.54,7.54,0,0,1,1.37-.76,7.7,7.7,0,0,1,1.56-.41,8.12,8.12,0,0,1,.83,0,1.13,1.13,0,0,0,1.15-1.09A1.14,1.14,0,0,0,113.29,0a8.67,8.67,0,0,0-4.81,1.44,8.33,8.33,0,0,0-3.13,3.91,7.82,7.82,0,0,0,2.5,8.81,8.84,8.84,0,0,0,4.93,1.89,1.18,1.18,0,0,0,.34.05,8.12,8.12,0,0,1,.83,0,7.7,7.7,0,0,1,1.56.41,7.54,7.54,0,0,1,1.37.76A7.34,7.34,0,0,1,118,18.39a7,7,0,0,1,.8,1.3,6.81,6.81,0,0,1,.43,1.49,6.85,6.85,0,0,1,0,1.58,6.81,6.81,0,0,1-.43,1.49,7,7,0,0,1-.8,1.3,7.34,7.34,0,0,1-1.11,1.06,7.54,7.54,0,0,1-1.37.76,7.7,7.7,0,0,1-1.56.41,8.12,8.12,0,0,1-.83,0,1.09,1.09,0,1,0,0,2.19,8.67,8.67,0,0,0,4.81-1.44,8.33,8.33,0,0,0,3.13-3.91A7.82,7.82,0,0,0,118.57,15.84Z"/>
        <ellipse class="cls-1" cx="105.83" cy="28.72" rx="1.15" ry="1.1"/>
        <ellipse class="cls-1" cx="120.36" cy="1.1" rx="1.15" ry="1.1"/>
      </g>
    </g>
  </g>
</svg>
